{"asset":{"version":"2.0","generator":"THREE.GLTFExporter"},"scenes":[{"nodes":[0],"name":"AuxScene"}],"scene":0,"nodes":[{"mesh":0}],"bufferViews":[{"buffer":0,"byteOffset":0,"byteLength":7884,"target":34962,"byteStride":12},{"buffer":0,"byteOffset":7884,"byteLength":7884,"target":34962,"byteStride":12}],"buffers":[{"byteLength":15768,"uri":"data:application/octet-stream;base64,"}],"accessors":[{"bufferView":0,"componentType":5126,"count":657,"max":[100.61190795898438,6.595970153808594,100.61190795898438],"min":[-100.68809509277344,0.19596900045871735,-100.68809509277344],"type":"VEC3"},{"bufferView":1,"componentType":5126,"count":657,"max":[0.4850675165653229,1,0.9032634496688843],"min":[-0.3991159200668335,0.15754863619804382,-0.48506924510002136],"type":"VEC3"}],"materials":[{"pbrMetallicRoughness":{"baseColorFactor":[0.5019607843137255,0.5019607843137255,0.5019607843137255,1],"metallicFactor":0,"roughnessFactor":1}}],"meshes":[{"primitives":[{"mode":4,"attributes":{"POSITION":0,"NORMAL":1},"material":0}]}]}